<svg width="620" height="188" viewBox="0 0 620 188" fill="none" xmlns="http://www.w3.org/2000/svg">
<g clip-path="url(#clip0_323_224)">
<path d="M0 40C0 17.9086 17.9086 0 40 0H580C602.091 0 620 17.9086 620 40V148C620 170.091 602.091 188 580 188H40C17.9086 188 0 170.091 0 148V40Z" fill="#1E1E1E"/>
<path d="M-78.4863 103.853C-52.8506 139.013 21.6234 190.368 114.434 114.508C230.446 19.6819 291.712 47.3838 367.315 103.853C442.919 160.322 570.663 162.453 664.516 94.2639" stroke="#1E1E1E" stroke-width="32" stroke-linecap="round"/>
<path d="M-85.1836 104.572C-59.0221 66.6547 8.43794 -0.856617 103.152 80.952C221.544 183.213 284.065 153.339 361.22 92.442C438.374 31.5451 568.739 29.2471 664.517 102.783" stroke="#FFFAF0" stroke-width="32" stroke-linecap="round"/>
<path d="M-78.4863 103.853C-52.8506 139.013 21.6234 190.368 114.434 114.508C169.116 69.8118 211.635 52.3377 249.225 52.2669" stroke="#1E1E1E" stroke-width="32" stroke-linecap="round"/>
<path d="M664.517 94.2637C607.125 135.962 537.06 151.365 473.994 144.126" stroke="#1E1E1E" stroke-width="32" stroke-linecap="round"/>
</g>
<defs>
<clipPath id="clip0_323_224">
<path d="M0 40C0 17.9086 17.9086 0 40 0H580C602.091 0 620 17.9086 620 40V148C620 170.091 602.091 188 580 188H40C17.9086 188 0 170.091 0 148V40Z" fill="white"/>
</clipPath>
</defs>
</svg>
